<svg width="62" height="62" viewBox="0 0 62 62" fill="none" xmlns="http://www.w3.org/2000/svg">
<path d="M1 11C1 5.47715 5.47715 1 11 1H51C56.5228 1 61 5.47715 61 11V51C61 56.5228 56.5228 61 51 61H11C5.47715 61 1 56.5228 1 51V11Z" fill="#95C121"/>
<path d="M27 41C27.5523 41 28 40.5523 28 40C28 39.4477 27.5523 39 27 39C26.4477 39 26 39.4477 26 40C26 40.5523 26.4477 41 27 41Z" fill="#95C121"/>
<path d="M38 41C38.5523 41 39 40.5523 39 40C39 39.4477 38.5523 39 38 39C37.4477 39 37 39.4477 37 40C37 40.5523 37.4477 41 38 41Z" fill="#95C121"/>
<path d="M21.05 21.05C22.2165 21.05 23.2245 21.865 23.4688 23.0056L25.71 33.47C25.8076 33.9249 26.0607 34.3315 26.4257 34.6199C26.7908 34.9082 27.2449 35.0603 27.71 35.05H37.49C37.9452 35.0493 38.3865 34.8933 38.741 34.6078C39.0956 34.3224 39.3421 33.9245 39.44 33.48C40.2868 29.6668 37.3851 26.05 33.479 26.05H24.12" fill="#95C121"/>
<path d="M21.05 21.05V21.05C22.2165 21.05 23.2245 21.865 23.4688 23.0057L25.71 33.47C25.8076 33.9249 26.0607 34.3315 26.4257 34.6199C26.7908 34.9082 27.2449 35.0603 27.71 35.05H37.49C37.9452 35.0493 38.3865 34.8933 38.741 34.6078C39.0956 34.3224 39.3421 33.9245 39.44 33.48V33.48C40.2868 29.6668 37.3851 26.05 33.479 26.05H24.12M11 61H51C56.5228 61 61 56.5228 61 51V11C61 5.47715 56.5228 1 51 1H11C5.47715 1 1 5.47715 1 11V51C1 56.5228 5.47715 61 11 61ZM28 40C28 40.5523 27.5523 41 27 41C26.4477 41 26 40.5523 26 40C26 39.4477 26.4477 39 27 39C27.5523 39 28 39.4477 28 40ZM39 40C39 40.5523 38.5523 41 38 41C37.4477 41 37 40.5523 37 40C37 39.4477 37.4477 39 38 39C38.5523 39 39 39.4477 39 40Z" stroke="white" stroke-width="2" stroke-linecap="round" stroke-linejoin="round"/>
</svg>
